<svg xmlns="http://www.w3.org/2000/svg" xmlns:xlink="http://www.w3.org/1999/xlink" contentStyleType="text/css" data-diagram-type="CLASS" height="727px" preserveAspectRatio="none" style="width:769px;height:727px;background:#FFFFFF;" version="1.1" viewBox="0 0 769 727" width="769px" zoomAndPan="magnify"><defs/><g><!--class User--><g id="elem_User"><rect codeLine="1" fill="#F1F1F1" height="162.0781" id="User" rx="2.5" ry="2.5" style="stroke:#181818;stroke-width:0.5;" width="284.3916" x="352" y="164"/><ellipse cx="473.9907" cy="180" fill="#ADD1B2" rx="11" ry="11" style="stroke:#181818;stroke-width:1;"/><path d="M476.9595,185.6406 Q476.3813,185.9375 475.7407,186.0781 Q475.1001,186.2344 474.397,186.2344 Q471.897,186.2344 470.5688,184.5938 Q469.2563,182.9375 469.2563,179.8125 Q469.2563,176.6875 470.5688,175.0313 Q471.897,173.375 474.397,173.375 Q475.1001,173.375 475.7407,173.5313 Q476.397,173.6875 476.9595,173.9844 L476.9595,176.7031 Q476.3345,176.125 475.7407,175.8594 Q475.147,175.5781 474.522,175.5781 Q473.1782,175.5781 472.4907,176.6563 Q471.8032,177.7188 471.8032,179.8125 Q471.8032,181.9063 472.4907,182.9844 Q473.1782,184.0469 474.522,184.0469 Q475.147,184.0469 475.7407,183.7813 Q476.3345,183.5 476.9595,182.9219 L476.9595,185.6406 Z " fill="#000000"/><text fill="#000000" font-family="sans-serif" font-size="14" lengthAdjust="spacing" textLength="31.9102" x="494.4907" y="184.8467">User</text><line style="stroke:#181818;stroke-width:0.5;" x1="353" x2="635.3916" y1="196" y2="196"/><ellipse cx="363" cy="209.6484" fill="transparent" rx="3" ry="3" style="stroke:#038048;stroke-width:1;"/><text fill="#000000" font-family="sans-serif" font-size="14" lengthAdjust="spacing" textLength="121.1875" x="372" y="212.9951">username: String</text><ellipse cx="363" cy="225.9453" fill="transparent" rx="3" ry="3" style="stroke:#038048;stroke-width:1;"/><text fill="#000000" font-family="sans-serif" font-size="14" lengthAdjust="spacing" textLength="89.5576" x="372" y="229.292">email: String</text><ellipse cx="363" cy="242.2422" fill="transparent" rx="3" ry="3" style="stroke:#038048;stroke-width:1;"/><text fill="#000000" font-family="sans-serif" font-size="14" lengthAdjust="spacing" textLength="146.3027" x="372" y="245.5889">profilePicture: Image</text><ellipse cx="363" cy="258.5391" fill="transparent" rx="3" ry="3" style="stroke:#038048;stroke-width:1;"/><text fill="#000000" font-family="sans-serif" font-size="14" lengthAdjust="spacing" textLength="93.9668" x="372" y="261.8857">status: String</text><ellipse cx="363" cy="274.8359" fill="transparent" rx="3" ry="3" style="stroke:#038048;stroke-width:1;"/><text fill="#000000" font-family="sans-serif" font-size="14" lengthAdjust="spacing" textLength="137.252" x="372" y="278.1826">friends: List&lt;User&gt;</text><line style="stroke:#181818;stroke-width:0.5;" x1="353" x2="635.3916" y1="285.4844" y2="285.4844"/><ellipse cx="363" cy="299.1328" fill="#84BE84" rx="3" ry="3" style="stroke:#038048;stroke-width:1;"/><text fill="#000000" font-family="sans-serif" font-size="14" lengthAdjust="spacing" textLength="258.3916" x="372" y="302.4795">sendCapture(capture: Capture): void</text><ellipse cx="363" cy="315.4297" fill="#84BE84" rx="3" ry="3" style="stroke:#038048;stroke-width:1;"/><text fill="#000000" font-family="sans-serif" font-size="14" lengthAdjust="spacing" textLength="190.374" x="372" y="318.7764">sendNote(note: Note): void</text></g><!--class Capture--><g id="elem_Capture"><rect codeLine="11" fill="#F1F1F1" height="178.375" id="Capture" rx="2.5" ry="2.5" style="stroke:#181818;stroke-width:0.5;" width="291.5693" x="7" y="386"/><ellipse cx="120.5483" cy="402" fill="#ADD1B2" rx="11" ry="11" style="stroke:#181818;stroke-width:1;"/><path d="M123.5171,407.6406 Q122.939,407.9375 122.2983,408.0781 Q121.6577,408.2344 120.9546,408.2344 Q118.4546,408.2344 117.1265,406.5938 Q115.814,404.9375 115.814,401.8125 Q115.814,398.6875 117.1265,397.0313 Q118.4546,395.375 120.9546,395.375 Q121.6577,395.375 122.2983,395.5313 Q122.9546,395.6875 123.5171,395.9844 L123.5171,398.7031 Q122.8921,398.125 122.2983,397.8594 Q121.7046,397.5781 121.0796,397.5781 Q119.7358,397.5781 119.0483,398.6563 Q118.3608,399.7188 118.3608,401.8125 Q118.3608,403.9063 119.0483,404.9844 Q119.7358,406.0469 121.0796,406.0469 Q121.7046,406.0469 122.2983,405.7813 Q122.8921,405.5 123.5171,404.9219 L123.5171,407.6406 Z " fill="#000000"/><text fill="#000000" font-family="sans-serif" font-size="14" lengthAdjust="spacing" textLength="55.9727" x="141.0483" y="406.8467">Capture</text><line style="stroke:#181818;stroke-width:0.5;" x1="8" x2="297.5693" y1="418" y2="418"/><ellipse cx="18" cy="431.6484" fill="transparent" rx="3" ry="3" style="stroke:#038048;stroke-width:1;"/><text fill="#000000" font-family="sans-serif" font-size="14" lengthAdjust="spacing" textLength="96.6191" x="27" y="434.9951">image: Image</text><ellipse cx="18" cy="447.9453" fill="transparent" rx="3" ry="3" style="stroke:#038048;stroke-width:1;"/><text fill="#000000" font-family="sans-serif" font-size="14" lengthAdjust="spacing" textLength="86.9395" x="27" y="451.292">video: Video</text><ellipse cx="18" cy="464.2422" fill="transparent" rx="3" ry="3" style="stroke:#038048;stroke-width:1;"/><text fill="#000000" font-family="sans-serif" font-size="14" lengthAdjust="spacing" textLength="133.2529" x="27" y="467.5889">textOverlay: String</text><ellipse cx="18" cy="480.5391" fill="transparent" rx="3" ry="3" style="stroke:#038048;stroke-width:1;"/><text fill="#000000" font-family="sans-serif" font-size="14" lengthAdjust="spacing" textLength="106.4971" x="27" y="483.8857">location: String</text><ellipse cx="18" cy="496.8359" fill="transparent" rx="3" ry="3" style="stroke:#038048;stroke-width:1;"/><text fill="#000000" font-family="sans-serif" font-size="14" lengthAdjust="spacing" textLength="118.1455" x="27" y="500.1826">timestamp: Date</text><ellipse cx="18" cy="513.1328" fill="transparent" rx="3" ry="3" style="stroke:#038048;stroke-width:1;"/><text fill="#000000" font-family="sans-serif" font-size="14" lengthAdjust="spacing" textLength="120.7773" x="27" y="516.4795">lockedUntil: Date</text><ellipse cx="18" cy="529.4297" fill="transparent" rx="3" ry="3" style="stroke:#038048;stroke-width:1;"/><text fill="#000000" font-family="sans-serif" font-size="14" lengthAdjust="spacing" textLength="183.292" x="27" y="532.7764">reactions: List&lt;Reaction&gt;</text><line style="stroke:#181818;stroke-width:0.5;" x1="8" x2="297.5693" y1="540.0781" y2="540.0781"/><ellipse cx="18" cy="553.7266" fill="#84BE84" rx="3" ry="3" style="stroke:#038048;stroke-width:1;"/><text fill="#000000" font-family="sans-serif" font-size="14" lengthAdjust="spacing" textLength="265.5693" x="27" y="557.0732">addReaction(reaction: Reaction): void</text></g><!--class Note--><g id="elem_Note"><rect codeLine="22" fill="#F1F1F1" height="96.8906" id="Note" rx="2.5" ry="2.5" style="stroke:#181818;stroke-width:0.5;" width="176.6299" x="334.5" y="426.5"/><ellipse cx="401.9946" cy="442.5" fill="#ADD1B2" rx="11" ry="11" style="stroke:#181818;stroke-width:1;"/><path d="M404.9634,448.1406 Q404.3853,448.4375 403.7446,448.5781 Q403.104,448.7344 402.4009,448.7344 Q399.9009,448.7344 398.5728,447.0938 Q397.2603,445.4375 397.2603,442.3125 Q397.2603,439.1875 398.5728,437.5313 Q399.9009,435.875 402.4009,435.875 Q403.104,435.875 403.7446,436.0313 Q404.4009,436.1875 404.9634,436.4844 L404.9634,439.2031 Q404.3384,438.625 403.7446,438.3594 Q403.1509,438.0781 402.5259,438.0781 Q401.1821,438.0781 400.4946,439.1563 Q399.8071,440.2188 399.8071,442.3125 Q399.8071,444.4063 400.4946,445.4844 Q401.1821,446.5469 402.5259,446.5469 Q403.1509,446.5469 403.7446,446.2813 Q404.3384,446 404.9634,445.4219 L404.9634,448.1406 Z " fill="#000000"/><text fill="#000000" font-family="sans-serif" font-size="14" lengthAdjust="spacing" textLength="33.1406" x="422.4946" y="447.3467">Note</text><line style="stroke:#181818;stroke-width:0.5;" x1="335.5" x2="510.1299" y1="458.5" y2="458.5"/><ellipse cx="345.5" cy="472.1484" fill="transparent" rx="3" ry="3" style="stroke:#038048;stroke-width:1;"/><text fill="#000000" font-family="sans-serif" font-size="14" lengthAdjust="spacing" textLength="78.8252" x="354.5" y="475.4951">text: String</text><ellipse cx="345.5" cy="488.4453" fill="transparent" rx="3" ry="3" style="stroke:#038048;stroke-width:1;"/><text fill="#000000" font-family="sans-serif" font-size="14" lengthAdjust="spacing" textLength="150.6299" x="354.5" y="491.792">handwritten: Boolean</text><ellipse cx="345.5" cy="504.7422" fill="transparent" rx="3" ry="3" style="stroke:#038048;stroke-width:1;"/><text fill="#000000" font-family="sans-serif" font-size="14" lengthAdjust="spacing" textLength="118.1455" x="354.5" y="508.0889">timestamp: Date</text><line style="stroke:#181818;stroke-width:0.5;" x1="335.5" x2="510.1299" y1="515.3906" y2="515.3906"/></g><!--class Reaction--><g id="elem_Reaction"><rect codeLine="28" fill="#F1F1F1" height="96.8906" id="Reaction" rx="2.5" ry="2.5" style="stroke:#181818;stroke-width:0.5;" width="125.8594" x="386" y="624"/><ellipse cx="415.5912" cy="640" fill="#ADD1B2" rx="11" ry="11" style="stroke:#181818;stroke-width:1;"/><path d="M418.5599,645.6406 Q417.9818,645.9375 417.3412,646.0781 Q416.7005,646.2344 415.9974,646.2344 Q413.4974,646.2344 412.1693,644.5938 Q410.8568,642.9375 410.8568,639.8125 Q410.8568,636.6875 412.1693,635.0313 Q413.4974,633.375 415.9974,633.375 Q416.7005,633.375 417.3412,633.5313 Q417.9974,633.6875 418.5599,633.9844 L418.5599,636.7031 Q417.9349,636.125 417.3412,635.8594 Q416.7474,635.5781 416.1224,635.5781 Q414.7787,635.5781 414.0912,636.6563 Q413.4037,637.7188 413.4037,639.8125 Q413.4037,641.9063 414.0912,642.9844 Q414.7787,644.0469 416.1224,644.0469 Q416.7474,644.0469 417.3412,643.7813 Q417.9349,643.5 418.5599,642.9219 L418.5599,645.6406 Z " fill="#000000"/><text fill="#000000" font-family="sans-serif" font-size="14" lengthAdjust="spacing" textLength="61.4346" x="432.8336" y="644.8467">Reaction</text><line style="stroke:#181818;stroke-width:0.5;" x1="387" x2="510.8594" y1="656" y2="656"/><ellipse cx="397" cy="669.6484" fill="transparent" rx="3" ry="3" style="stroke:#038048;stroke-width:1;"/><text fill="#000000" font-family="sans-serif" font-size="14" lengthAdjust="spacing" textLength="89.5439" x="406" y="672.9951">emoji: String</text><ellipse cx="397" cy="685.9453" fill="transparent" rx="3" ry="3" style="stroke:#038048;stroke-width:1;"/><text fill="#000000" font-family="sans-serif" font-size="14" lengthAdjust="spacing" textLength="99.8594" x="406" y="689.292">sticker: Image</text><ellipse cx="397" cy="702.2422" fill="transparent" rx="3" ry="3" style="stroke:#038048;stroke-width:1;"/><text fill="#000000" font-family="sans-serif" font-size="14" lengthAdjust="spacing" textLength="71.6133" x="406" y="705.5889">user: User</text><line style="stroke:#181818;stroke-width:0.5;" x1="387" x2="510.8594" y1="712.8906" y2="712.8906"/></g><!--class StatusUpdate--><g id="elem_StatusUpdate"><rect codeLine="34" fill="#F1F1F1" height="80.5938" id="StatusUpdate" rx="2.5" ry="2.5" style="stroke:#181818;stroke-width:0.5;" width="144.1455" x="618" y="434.5"/><ellipse cx="640.5744" cy="450.5" fill="#ADD1B2" rx="11" ry="11" style="stroke:#181818;stroke-width:1;"/><path d="M643.5432,456.1406 Q642.965,456.4375 642.3244,456.5781 Q641.6838,456.7344 640.9807,456.7344 Q638.4807,456.7344 637.1525,455.0938 Q635.84,453.4375 635.84,450.3125 Q635.84,447.1875 637.1525,445.5313 Q638.4807,443.875 640.9807,443.875 Q641.6838,443.875 642.3244,444.0313 Q642.9807,444.1875 643.5432,444.4844 L643.5432,447.2031 Q642.9182,446.625 642.3244,446.3594 Q641.7307,446.0781 641.1057,446.0781 Q639.7619,446.0781 639.0744,447.1563 Q638.3869,448.2188 638.3869,450.3125 Q638.3869,452.4063 639.0744,453.4844 Q639.7619,454.5469 641.1057,454.5469 Q641.7307,454.5469 642.3244,454.2813 Q642.9182,454 643.5432,453.4219 L643.5432,456.1406 Z " fill="#000000"/><text fill="#000000" font-family="sans-serif" font-size="14" lengthAdjust="spacing" textLength="95.3135" x="656.2576" y="455.3467">StatusUpdate</text><line style="stroke:#181818;stroke-width:0.5;" x1="619" x2="761.1455" y1="466.5" y2="466.5"/><ellipse cx="629" cy="480.1484" fill="transparent" rx="3" ry="3" style="stroke:#038048;stroke-width:1;"/><text fill="#000000" font-family="sans-serif" font-size="14" lengthAdjust="spacing" textLength="78.8252" x="638" y="483.4951">text: String</text><ellipse cx="629" cy="496.4453" fill="transparent" rx="3" ry="3" style="stroke:#038048;stroke-width:1;"/><text fill="#000000" font-family="sans-serif" font-size="14" lengthAdjust="spacing" textLength="118.1455" x="638" y="499.792">timestamp: Date</text><line style="stroke:#181818;stroke-width:0.5;" x1="619" x2="761.1455" y1="507.0938" y2="507.0938"/></g><!--class Widget--><g id="elem_Widget"><rect codeLine="39" fill="#F1F1F1" height="96.8906" id="Widget" rx="2.5" ry="2.5" style="stroke:#181818;stroke-width:0.5;" width="300.4355" x="344" y="7"/><ellipse cx="465.1636" cy="23" fill="#ADD1B2" rx="11" ry="11" style="stroke:#181818;stroke-width:1;"/><path d="M468.1323,28.6406 Q467.5542,28.9375 466.9136,29.0781 Q466.2729,29.2344 465.5698,29.2344 Q463.0698,29.2344 461.7417,27.5938 Q460.4292,25.9375 460.4292,22.8125 Q460.4292,19.6875 461.7417,18.0313 Q463.0698,16.375 465.5698,16.375 Q466.2729,16.375 466.9136,16.5313 Q467.5698,16.6875 468.1323,16.9844 L468.1323,19.7031 Q467.5073,19.125 466.9136,18.8594 Q466.3198,18.5781 465.6948,18.5781 Q464.3511,18.5781 463.6636,19.6563 Q462.9761,20.7188 462.9761,22.8125 Q462.9761,24.9063 463.6636,25.9844 Q464.3511,27.0469 465.6948,27.0469 Q466.3198,27.0469 466.9136,26.7813 Q467.5073,26.5 468.1323,25.9219 L468.1323,28.6406 Z " fill="#000000"/><text fill="#000000" font-family="sans-serif" font-size="14" lengthAdjust="spacing" textLength="49.6084" x="485.6636" y="27.8467">Widget</text><line style="stroke:#181818;stroke-width:0.5;" x1="345" x2="643.4355" y1="39" y2="39"/><ellipse cx="355" cy="52.6484" fill="transparent" rx="3" ry="3" style="stroke:#038048;stroke-width:1;"/><text fill="#000000" font-family="sans-serif" font-size="14" lengthAdjust="spacing" textLength="84.335" x="364" y="55.9951">owner: User</text><line style="stroke:#181818;stroke-width:0.5;" x1="345" x2="643.4355" y1="63.2969" y2="63.2969"/><ellipse cx="355" cy="76.9453" fill="#84BE84" rx="3" ry="3" style="stroke:#038048;stroke-width:1;"/><text fill="#000000" font-family="sans-serif" font-size="14" lengthAdjust="spacing" textLength="274.4355" x="364" y="80.292">displayCapture(capture: Capture): void</text><ellipse cx="355" cy="93.2422" fill="#84BE84" rx="3" ry="3" style="stroke:#038048;stroke-width:1;"/><text fill="#000000" font-family="sans-serif" font-size="14" lengthAdjust="spacing" textLength="206.418" x="364" y="96.5889">displayNote(note: Note): void</text></g><!--class DualCapture--><g id="elem_DualCapture"><rect codeLine="45" fill="#F1F1F1" height="64.2969" id="DualCapture" rx="2.5" ry="2.5" style="stroke:#181818;stroke-width:0.5;" width="163.8057" x="71" y="640.5"/><ellipse cx="105.6699" cy="656.5" fill="#ADD1B2" rx="11" ry="11" style="stroke:#181818;stroke-width:1;"/><path d="M108.6387,662.1406 Q108.0605,662.4375 107.4199,662.5781 Q106.7793,662.7344 106.0762,662.7344 Q103.5762,662.7344 102.248,661.0938 Q100.9355,659.4375 100.9355,656.3125 Q100.9355,653.1875 102.248,651.5313 Q103.5762,649.875 106.0762,649.875 Q106.7793,649.875 107.4199,650.0313 Q108.0762,650.1875 108.6387,650.4844 L108.6387,653.2031 Q108.0137,652.625 107.4199,652.3594 Q106.8262,652.0781 106.2012,652.0781 Q104.8574,652.0781 104.1699,653.1563 Q103.4824,654.2188 103.4824,656.3125 Q103.4824,658.4063 104.1699,659.4844 Q104.8574,660.5469 106.2012,660.5469 Q106.8262,660.5469 107.4199,660.2813 Q108.0137,660 108.6387,659.4219 L108.6387,662.1406 Z " fill="#000000"/><text fill="#000000" font-family="sans-serif" font-size="14" lengthAdjust="spacing" textLength="88.0947" x="124.041" y="661.3467">DualCapture</text><line style="stroke:#181818;stroke-width:0.5;" x1="72" x2="233.8057" y1="672.5" y2="672.5"/><ellipse cx="82" cy="686.1484" fill="transparent" rx="3" ry="3" style="stroke:#038048;stroke-width:1;"/><text fill="#000000" font-family="sans-serif" font-size="14" lengthAdjust="spacing" textLength="137.8057" x="91" y="689.4951">friendImage: Image</text><line style="stroke:#181818;stroke-width:0.5;" x1="72" x2="233.8057" y1="696.7969" y2="696.7969"/></g><!--reverse link Capture to DualCapture--><g id="link_Capture_DualCapture"><path d="M140.0979,582.0288 C139.7779,609.1888 141,619.36 143.33,640.05 " fill="transparent" id="Capture-backto-DualCapture" style="stroke:#181818;stroke-width:1;"/><polygon fill="transparent" points="140.31,564.03,134.0984,581.9581,146.0975,582.0994,140.31,564.03" style="stroke:#181818;stroke-width:1;"/></g><!--reverse link Capture to DualCapture--><g id="link_Capture_DualCapture"><path codeLine="55" d="M166.6587,582.0287 C166.9887,609.1887 165.71,619.36 163.23,640.05 " fill="transparent" id="Capture-backto-DualCapture-1" style="stroke:#181818;stroke-width:1;"/><polygon fill="transparent" points="166.44,564.03,160.6591,582.1016,172.6582,581.9558,166.44,564.03" style="stroke:#181818;stroke-width:1;"/></g><!--link User to Capture--><g id="link_User_Capture"><path codeLine="49" d="M374.26,326.06 C345.28,345.44 314.15,366.25 284.66,385.97 " fill="transparent" id="User-Capture" style="stroke:#181818;stroke-width:1;"/><text fill="#000000" font-family="sans-serif" font-size="13" lengthAdjust="spacing" textLength="8.271" x="355.234" y="346.0167">1</text><text fill="#000000" font-family="sans-serif" font-size="13" lengthAdjust="spacing" textLength="6.5" x="289.3532" y="375.033">*</text></g><!--link User to Note--><g id="link_User_Note"><path codeLine="50" d="M469.07,326.06 C458.64,359.55 446.87,397.34 437.84,426.34 " fill="transparent" id="User-Note" style="stroke:#181818;stroke-width:1;"/><text fill="#000000" font-family="sans-serif" font-size="13" lengthAdjust="spacing" textLength="8.271" x="458.4881" y="346.0167">1</text><text fill="#000000" font-family="sans-serif" font-size="13" lengthAdjust="spacing" textLength="6.5" x="433.5662" y="415.5264">*</text></g><!--link User to Reaction--><g id="link_User_Reaction"><path codeLine="51" d="M521.14,326.04 C539.06,391.56 554.89,485.84 529,564 C521.83,585.64 508.43,606.47 494.61,623.93 " fill="transparent" id="User-Reaction" style="stroke:#181818;stroke-width:1;"/><text fill="#000000" font-family="sans-serif" font-size="13" lengthAdjust="spacing" textLength="8.271" x="515.2677" y="346.2717">1</text><text fill="#000000" font-family="sans-serif" font-size="13" lengthAdjust="spacing" textLength="6.5" x="494.9154" y="612.7794">*</text></g><!--link User to StatusUpdate--><g id="link_User_StatusUpdate"><path codeLine="52" d="M562.83,326.06 C594.37,362.76 630.36,404.62 655.98,434.42 " fill="transparent" id="User-StatusUpdate" style="stroke:#181818;stroke-width:1;"/><text fill="#000000" font-family="sans-serif" font-size="13" lengthAdjust="spacing" textLength="8.271" x="560.5986" y="346.0167">1</text><text fill="#000000" font-family="sans-serif" font-size="13" lengthAdjust="spacing" textLength="6.5" x="643.8779" y="423.5683">*</text></g><!--link Capture to Reaction--><g id="link_Capture_Reaction"><path codeLine="53" d="M286.28,564.03 C320.96,586.93 356.73,610.56 385.87,629.8 " fill="transparent" id="Capture-Reaction" style="stroke:#181818;stroke-width:1;"/><text fill="#000000" font-family="sans-serif" font-size="13" lengthAdjust="spacing" textLength="8.271" x="289.4201" y="584.382">1</text><text fill="#000000" font-family="sans-serif" font-size="13" lengthAdjust="spacing" textLength="6.5" x="371.4381" y="620.4505">*</text></g><!--link Widget to User--><g id="link_Widget_User"><path codeLine="54" d="M494,104.3 C494,122.42 494,143.58 494,163.87 " fill="transparent" id="Widget-User" style="stroke:#181818;stroke-width:1;"/><text fill="#000000" font-family="sans-serif" font-size="13" lengthAdjust="spacing" textLength="8.271" x="485.4514" y="123.9485">1</text><text fill="#000000" font-family="sans-serif" font-size="13" lengthAdjust="spacing" textLength="8.271" x="485.6384" y="153.0457">1</text></g><!--SRC=[ZLCzJyCm4DtpAwnC1TI1rQeOWAKI0aHLcAtuMWuSEx8lBGZuxzYE7HBI2fROVlVXzyulbHBEiRK3opuAnivOwxTQrC3PYYpgRGIX5gX6I6FD1XNSOqMjzSdBMcmXHXm9QjqeUMCHjFJO3JfQXCikkbIFNeacT9XLtSfP0auusncKVTwj8PXf_-4iR7FugoYgA26L9HKOw0nPxL22uUmnB14WUAEx7LWbtaTSbQa4eT4ZaB06hwjkEBiM13dn5UHQKvXCZreGLIZFOX_IkHCifCp0B6Tobg69fY0q2GfqHvIUXPPxYqJWErmQeq3eWrpxRlcQr15gyuAZbexGIxB3iGKty6YFdpwh-C3hHehZx8wIU4Av1KfbPg_xzk4iqJN-FVvZYPJwbokkMw6oCpp7uC9VJkcykHpwnLV77w8yBzbypihJCjTCy73f1Co3dWI6aoioZKE5QKevv9Sueroo-FJeGDet]--></g></svg>